<svg width="17" height="17" viewBox="0 0 17 17" fill="none" xmlns="http://www.w3.org/2000/svg">
<path d="M1.24662 15.2892L1.24668 15.2891L2.28103 12.2462C1.46134 10.8627 1.12131 9.24676 1.31458 7.64943C1.5097 6.03671 2.2373 4.53517 3.38213 3.38264L3.38252 3.38225C4.74184 2.02896 6.58185 1.2692 8.49995 1.2692C10.4181 1.2692 12.2581 2.02896 13.6174 3.38225L13.618 3.38291C14.8163 4.59839 15.5477 6.19737 15.6837 7.89875C15.8197 9.60012 15.3515 11.295 14.3616 12.6854C13.3716 14.0757 11.9232 15.0726 10.271 15.5008C8.62948 15.9262 6.8912 15.7631 5.35789 15.0406L1.66621 15.77L1.65661 15.7719H1.64683L1.59396 15.7719L1.5937 15.7719M1.24662 15.2892L1.5937 15.6719V15.7719M1.24662 15.2892C1.22801 15.3443 1.22281 15.403 1.23145 15.4605C1.24008 15.518 1.2623 15.5726 1.29626 15.6198C1.33022 15.667 1.37494 15.7054 1.42672 15.7319C1.47842 15.7583 1.53566 15.772 1.5937 15.7719M1.24662 15.2892L1.5937 15.7719M5.40602 14.2836L5.39209 14.2835L5.37866 14.2872L5.33443 14.2995L2.14516 14.9343L3.03496 12.3124C3.03499 12.3123 3.03502 12.3122 3.03505 12.3122C3.05284 12.2604 3.05879 12.2054 3.05248 12.151C3.04615 12.0967 3.02771 12.0444 2.9985 11.9981C2.20941 10.7443 1.86784 9.26032 2.02936 7.78767C2.19087 6.31511 2.8459 4.94053 3.88788 3.88754C4.49349 3.28186 5.21247 2.80139 6.00377 2.47358C6.79515 2.14573 7.64336 1.97699 8.49995 1.97699C9.35655 1.97699 10.2048 2.14573 10.9961 2.47358C11.7874 2.80139 12.5064 3.28186 13.112 3.88754C14.2018 4.98514 14.8662 6.4342 14.9867 7.97621C15.1073 9.51825 14.676 11.053 13.77 12.3066C12.864 13.5602 11.5421 14.4512 10.0401 14.8205C8.53824 15.1899 6.95404 15.0137 5.57002 14.3235C5.51922 14.2976 5.46306 14.2839 5.40602 14.2836Z" fill="#3CC952" stroke="#3CC952" stroke-width="0.2"/>
<path d="M10.1492 12.3183L10.1492 12.3182C9.42079 12.2386 8.60812 11.8414 7.92143 11.4099C7.23269 10.9772 6.65719 10.5014 6.40058 10.2502L6.39982 10.2495C6.14799 9.99764 5.6713 9.42175 5.23833 8.7318C4.80655 8.04375 4.4093 7.22838 4.3311 6.4999L4.43053 6.48923M10.1492 12.3183L6.87694 4.33235M10.1492 12.3183L10.1546 12.3186C10.2393 12.3232 10.3242 12.3232 10.4089 12.3187C10.7954 12.3048 11.1744 12.2084 11.5205 12.0358C11.8667 11.8632 12.1719 11.6184 12.4155 11.318M10.1492 12.3183L12.4155 11.318M4.43053 6.48923L4.33111 6.50002C4.20332 5.32206 4.98899 4.52719 5.32455 4.24298C5.49096 4.10016 5.70553 4.0261 5.9246 4.03587L6.64121 4.05975L6.64157 4.05977C6.71377 4.06244 6.78355 4.08644 6.84211 4.12874C6.90063 4.17099 6.94532 4.22962 6.97057 4.29724M4.43053 6.48923C4.58194 7.8997 5.97912 9.68735 6.47053 10.1788L5.92069 4.13579C5.72673 4.127 5.53672 4.19256 5.38944 4.31907C5.06006 4.59798 4.30834 5.36298 4.43053 6.48923ZM6.97057 4.29724C6.97059 4.2973 6.97061 4.29736 6.97064 4.29742L6.87694 4.33235M6.97057 4.29724C6.97054 4.29717 6.97052 4.29711 6.9705 4.29705L6.87694 4.33235M6.97057 4.29724C7.05052 4.50911 7.21967 4.96728 7.36898 5.41856C7.44363 5.64417 7.5137 5.86917 7.56521 6.06133C7.61565 6.24951 7.65162 6.41774 7.65162 6.52376C7.65162 6.71419 7.5672 6.87706 7.45815 7.01533C7.34989 7.15261 7.20989 7.27473 7.08649 7.38238L7.08611 7.38271L7.08514 7.38355L7.08514 7.38355C7.05148 7.41216 7.01166 7.44716 6.97726 7.47935M6.87694 4.33235C7.03631 4.7547 7.55162 6.15985 7.55162 6.52376C7.55162 6.84251 7.27006 7.08954 7.02037 7.30735C6.96725 7.35251 6.89553 7.41626 6.85303 7.46142M6.97726 7.47935C6.96499 7.45743 6.95282 7.43546 6.94076 7.41341L6.85303 7.46142M6.97726 7.47935C6.95765 7.4977 6.93979 7.51514 6.92585 7.52995L6.85303 7.46142M6.97726 7.47935C7.23363 7.93693 7.53711 8.36654 7.8828 8.76118M6.85303 7.46142C7.1215 7.95204 7.44306 8.41167 7.81194 8.83204M7.81194 8.83204L7.87789 8.75687C7.87952 8.75831 7.88116 8.75974 7.8828 8.76118M7.81194 8.83204C8.23235 9.20087 8.69198 9.52243 9.18256 9.79095M7.81194 8.83204L7.8871 8.76608C7.88567 8.76445 7.88423 8.76281 7.8828 8.76118M7.8828 8.76118C8.27715 9.10653 8.70638 9.4098 9.16351 9.66608M9.18256 9.79095L9.11185 9.72024C9.12718 9.70491 9.14492 9.68618 9.16351 9.66608M9.18256 9.79095C9.22441 9.7491 9.28224 9.68442 9.32643 9.635C9.32992 9.6311 9.33332 9.6273 9.33662 9.6236M9.18256 9.79095L9.23057 9.70323C9.20815 9.69096 9.1858 9.67857 9.16351 9.66608M9.16351 9.66608C9.19313 9.63405 9.22488 9.59855 9.25239 9.56778C9.25554 9.56426 9.25864 9.56079 9.26167 9.5574M9.33662 9.6236L9.26127 9.55787L9.26167 9.5574M9.33662 9.6236C9.55444 9.37392 9.80147 9.09235 10.1335 9.09235C10.4974 9.09235 11.9026 9.60767 12.3249 9.76704M9.33662 9.6236L9.2621 9.55692C9.26196 9.55708 9.26181 9.55724 9.26167 9.5574M9.26167 9.5574L9.26175 9.55731C9.36935 9.43397 9.49161 9.29382 9.63079 9.18544C9.77141 9.07596 9.93735 8.99235 10.1335 8.99235C10.2395 8.99235 10.4077 9.02833 10.5959 9.07877C10.7881 9.13028 11.0131 9.20035 11.2387 9.27499C11.6901 9.42435 12.1484 9.59356 12.3602 9.67348M12.3249 9.76704L12.3598 9.67334C12.36 9.67339 12.3601 9.67343 12.3602 9.67348M12.3249 9.76704L12.3602 9.67348M12.3249 9.76704L12.4155 11.318M12.3602 9.67348C12.4277 9.69874 12.4863 9.74341 12.5285 9.80186C12.5708 9.86043 12.5948 9.93021 12.5975 10.0024L12.5975 10.0028L12.6214 10.72L12.6214 10.7205C12.6276 10.938 12.5544 11.1504 12.4155 11.318M7.02685 9.82836L6.9299 9.72906C6.71614 9.51012 6.28205 8.98643 5.88488 8.36169C5.48613 7.73447 5.13431 7.02028 5.06917 6.41739L5.06915 6.41723C4.97945 5.59991 5.54524 5.01955 5.80612 4.80016C5.8369 4.77572 5.87538 4.76301 5.91468 4.76433L6.38051 4.78063C6.60352 5.34529 6.78533 5.92537 6.92451 6.51633C6.92025 6.52365 6.91388 6.53315 6.90495 6.54482C6.88351 6.57287 6.85293 6.60622 6.81718 6.64198C6.75799 6.70117 6.6912 6.76048 6.64041 6.80559C6.62986 6.81496 6.62 6.82372 6.61104 6.83174L6.61104 6.83173L6.6104 6.83231C6.60539 6.83687 6.60039 6.84143 6.59538 6.84597C6.49937 6.93331 6.40595 7.01827 6.33685 7.10604C6.26223 7.2008 6.2085 7.30775 6.2085 7.43751C6.2085 7.4967 6.22718 7.56458 6.2525 7.63195C6.27863 7.70147 6.31543 7.77963 6.35906 7.86229C6.44639 8.02775 6.56465 8.21793 6.69002 8.4044C6.93948 8.77542 7.22543 9.14398 7.36404 9.2826C7.50236 9.42092 7.86861 9.70872 8.2392 9.96034C8.42537 10.0867 8.61563 10.2061 8.78195 10.2942C8.86506 10.3383 8.94386 10.3754 9.01428 10.4018C9.0827 10.4274 9.15147 10.4461 9.21178 10.4461C9.3446 10.4461 9.45346 10.3932 9.54923 10.3178C9.64236 10.2444 9.7297 10.1444 9.81841 10.0426C9.82339 10.0369 9.82867 10.0308 9.83422 10.0244C9.88016 9.97158 9.94471 9.89732 10.0085 9.83328C10.0443 9.79726 10.0774 9.76703 10.1048 9.74648C10.1154 9.73855 10.1238 9.73305 10.1302 9.72943C10.7221 9.86866 11.3031 10.0507 11.8687 10.2741L11.885 10.7399C11.885 10.74 11.885 10.74 11.885 10.7401M7.02685 9.82836L11.885 10.7401M7.02685 9.82836C7.28185 10.0604 7.74516 10.4285 8.28381 10.7696C8.9134 11.1684 9.63027 11.5203 10.2292 11.5854C11.0492 11.6726 11.6296 11.1069 11.8493 10.8483M7.02685 9.82836L11.8493 10.8483M11.885 10.7401C11.8862 10.7792 11.8736 10.8176 11.8493 10.8483M11.885 10.7401L11.8493 10.8483" fill="#3CC952" stroke="#3CC952" stroke-width="0.2"/>
</svg>
